# xmcd
#
# Track frame offsets:
#	150
#	10085
#	26042
#	40275
#	58885
#	73989
#	96931
#	109297
#	136251
#	154167
#
# Disc length: 2474 seconds
#
# Revision: 0
# Processed by: cddbd v1.5.1PL2 Copyright (c) Steve Scherf et al.
# Submitted via: dBpowerAMP V4.0
#
DISCID=8d09a80a
DTITLE=Nate Morefield and Stiletto Rain - Stiletto Rain
DYEAR=1998
DGENRE=Blues
TTITLE0=Chevy Nova
TTITLE1=Here We Go Again
TTITLE2=When The Blues
TTITLE3=Ramblin'
TTITLE4=The Dreamers
TTITLE5=Call It What You Want
TTITLE6=Where There's Smoke
TTITLE7=Mean Mean Woman
TTITLE8=Road Trip to Austin (Live)
TTITLE9=54-90
EXTD=
EXTT0=
EXTT1=
EXTT2=
EXTT3=
EXTT4=
EXTT5=
EXTT6=
EXTT7=
EXTT8=
EXTT9=
PLAYORDER=
